<svg xmlns="http://www.w3.org/2000/svg" fill="currentColor" viewBox="0 0 16 16" ><path d="m7.21,2.59c0-.44.35-.79.79-.79s.79.35.79.79v8.28c0,.44-.35.79-.79.79s-.79-.35-.79-.79V2.59Z"/><path d="M8.5 2.41c.34-.27.4-.77.13-1.11a.78.78 0 0 0-1.1-.13s-.02.02-.03.02L5.14 3.16a.78.78 0 0 0-.07 1.11c.28.32.75.36 1.08.1L8.51 2.4z"/><path d="M7.5 2.41c-.34-.27-.4-.77-.13-1.11a.78.78 0 0 1 1.1-.13s.02.02.03.02l2.36 1.97c.34.27.4.77.13 1.11a.78.78 0 0 1-1.1.13s-.02-.02-.03-.02L7.5 2.41zm2.86 4.92a.79.79 0 0 1-.79-.79c0-.44.35-.79.79-.79h.79c1.28 0 2.36.92 2.36 2.12v6.01c0 1.2-1.08 2.12-2.36 2.12H4.86c-1.28 0-2.36-.92-2.36-2.12V7.87c0-1.2 1.08-2.12 2.36-2.12h.79a.79.79 0 0 1 .79.79c0 .44-.35.79-.79.79h-.79c-.46 0-.79.28-.79.55v6.01c0 .27.33.55.79.55h6.29c.46 0 .79-.28.79-.55V7.88c0-.27-.33-.55-.79-.55h-.79z"/></svg>