<svg xmlns="http://www.w3.org/2000/svg" fill="currentColor" viewBox="0 0 16 16"><path d="m5.49,6.51c.27,0,.5.22.5.5v6c0,.27-.22.5-.5.5s-.5-.22-.5-.5v-6c0-.27.22-.5.5-.5Zm2.5,0c.27,0,.5.22.5.5v6c0,.27-.22.5-.5.5s-.5-.22-.5-.5v-6c0-.27.22-.5.5-.5Zm3,.5c0-.27-.22-.5-.5-.5s-.5.22-.5.5v6c0,.27.22.5.5.5s.5-.22.5-.5v-6Z"/><path d="m14.49,4.01c0,.55-.45,1-1,1h-.5v8.99c0,1.11-.9,2-2,2h-6c-1.11,0-2-.9-2-2V5.01h-.5c-.55,0-1-.45-1-1v-1c0-.55.45-1,1-1h3.49c0-.55.45-1,1-1h2c.55,0,1,.45,1,1h3.49c.55,0,1,.45,1,1v1h0Zm-10.37,1l-.12.06v8.94c0,.55.45,1,1,1h6c.55,0,1-.45,1-1V5.07l-.12-.06h-7.76Zm-1.62-1v-1h10.99v1H2.5Z" style="fill-rule:evenodd"/></svg>