<svg id="Capa_1" data-name="Capa 1" xmlns="http://www.w3.org/2000/svg" viewBox="0 0 500 500"><defs><style>.cls-1{fill:#6e7750;}.cls-2{fill:#3d3f31;}.cls-3{fill:#eaf7b7;}</style></defs><rect id="bg" class="cls-1" width="500" height="500"/><path id="outline" class="cls-2" d="M481.34,164.21,404,453a14.06,14.06,0,0,1-13.55,10.4,14.2,14.2,0,0,1-3.63-.48L197.53,412.16A14,14,0,0,1,187.61,395l2-7.61A9,9,0,1,1,207,392l-1,3.78,181.58,48.65,75.32-281.07-77-20.64a9,9,0,1,1,4.65-17.39L471.42,147A14,14,0,0,1,481.34,164.21ZM130.55,234.09A34.4,34.4,0,0,1,138,232.9V50.67a14,14,0,0,1,14-14H348a14,14,0,0,1,14,14V232.9a34.31,34.31,0,0,1,7.45,1.19,31,31,0,0,1,21.92,38c-4.28,16-17.95,28.11-29.37,36.4V349.6a14,14,0,0,1-14,14H152a14,14,0,0,1-14-14V308.46c-11.43-8.29-25.1-20.42-29.38-36.4a31,31,0,0,1,21.92-38ZM156,345.63H344v-291H156v291Zm35.74,77.57-79.36,21.26L37.07,163.39l77-20.64a9,9,0,0,0-4.66-17.39L28.58,147a14.05,14.05,0,0,0-9.92,17.18L96,453a14.07,14.07,0,0,0,13.54,10.41,14.11,14.11,0,0,0,3.64-.48l83.2-22.29a9,9,0,1,0-4.66-17.39Z"/><g id="details"><path class="cls-3" d="M299.06,194.94a9,9,0,0,1,0,10.39l-41.71,59a9,9,0,0,1-14.7,0l-41.72-59a9,9,0,0,1,0-10.39l41.72-59a9,9,0,0,1,14.7,0Z"/><path class="cls-3" d="M184.31,74.21a9,9,0,0,0-9,9v8.56a9,9,0,0,0,18,0V83.21A9,9,0,0,0,184.31,74.21Z"/><path class="cls-3" d="M361.19,398.94,359,407.22a9,9,0,1,0,17.38,4.65l2.22-8.27a9,9,0,0,0-17.39-4.66Z"/><path class="cls-3" d="M69.48,175a9,9,0,0,0-6.37,11l2.22,8.28a9,9,0,0,0,17.39-4.66l-2.22-8.28A9,9,0,0,0,69.48,175Z"/><path class="cls-3" d="M315.7,299.5a9,9,0,0,0-9,9v8.56a9,9,0,0,0,18,0V308.5A9,9,0,0,0,315.7,299.5Z"/><path class="cls-3" d="M362,233a34.31,34.31,0,0,1,7.45,1.19,31,31,0,0,1,21.92,38c-4.28,16-17.95,28.11-29.37,36.41"/><path class="cls-3" d="M138,308.56c-11.43-8.3-25.1-20.43-29.38-36.41a31,31,0,0,1,21.92-38A34.4,34.4,0,0,1,138,233"/></g></svg>